<svg width="24" height="24" viewBox="0 0 24 24" fill="none" xmlns="http://www.w3.org/2000/svg">
<path d="M11.7071 16.7071C12.0976 16.3166 12.0976 15.6834 11.7071 15.2929C11.3166 14.9024 10.6834 14.9024 10.2929 15.2929L11.7071 16.7071ZM8 19L7.29289 19.7071C7.48043 19.8946 7.73478 20 8 20C8.26522 20 8.51957 19.8946 8.70711 19.7071L8 19ZM5.70711 15.2929C5.31658 14.9024 4.68342 14.9024 4.29289 15.2929C3.90237 15.6834 3.90237 16.3166 4.29289 16.7071L5.70711 15.2929ZM10.2929 15.2929L7.29289 18.2929L8.70711 19.7071L11.7071 16.7071L10.2929 15.2929ZM8.70711 18.2929L5.70711 15.2929L4.29289 16.7071L7.29289 19.7071L8.70711 18.2929Z" fill="#916648"/>
<path d="M12.2929 7.29289C11.9024 7.68342 11.9024 8.31658 12.2929 8.70711C12.6834 9.09763 13.3166 9.09763 13.7071 8.70711L12.2929 7.29289ZM16 5L16.7071 4.29289C16.3166 3.90237 15.6834 3.90237 15.2929 4.29289L16 5ZM18.2929 8.70711C18.6834 9.09763 19.3166 9.09763 19.7071 8.70711C20.0976 8.31658 20.0976 7.68342 19.7071 7.29289L18.2929 8.70711ZM13.7071 8.70711L16.7071 5.70711L15.2929 4.29289L12.2929 7.29289L13.7071 8.70711ZM15.2929 5.70711L18.2929 8.70711L19.7071 7.29289L16.7071 4.29289L15.2929 5.70711Z" fill="#916648"/>
<path d="M15 19C15 19.5523 15.4477 20 16 20C16.5523 20 17 19.5523 17 19H15ZM17 5C17 4.44772 16.5523 4 16 4C15.4477 4 15 4.44772 15 5L17 5ZM17 19L17 5L15 5L15 19H17Z" fill="#916648"/>
<path d="M9 5C9 4.44772 8.55228 4 8 4C7.44772 4 7 4.44772 7 5H9ZM7 19C7 19.5523 7.44772 20 8 20C8.55228 20 9 19.5523 9 19H7ZM7 5V19H9V5H7Z" fill="#916648"/>
</svg>
