<svg width="32" height="32" viewBox="0 0 32 32" fill="none" xmlns="http://www.w3.org/2000/svg">
<path fill-rule="evenodd" clip-rule="evenodd" d="M26.56 16.25C26.56 15.47 26.49 14.72 26.36 14H16V18.255H21.92C21.665 19.63 20.89 20.795 19.725 21.575V24.335H23.28C25.36 22.42 26.56 19.6 26.56 16.25Z" fill="#4285F4"/>
<path fill-rule="evenodd" clip-rule="evenodd" d="M15.9999 27C18.9699 27 21.4599 26.015 23.2799 24.335L19.7249 21.575C18.7399 22.235 17.4799 22.625 15.9999 22.625C13.1349 22.625 10.7099 20.69 9.84492 18.09H6.16992V20.94C7.97992 24.535 11.6999 27 15.9999 27Z" fill="#34A853"/>
<path fill-rule="evenodd" clip-rule="evenodd" d="M9.845 18.09C9.625 17.43 9.5 16.725 9.5 16C9.5 15.275 9.625 14.57 9.845 13.91V11.06H6.17C5.425 12.545 5 14.225 5 16C5 17.775 5.425 19.455 6.17 20.94L9.845 18.09Z" fill="#FBBC05"/>
<path fill-rule="evenodd" clip-rule="evenodd" d="M15.9999 9.375C17.6149 9.375 19.0649 9.93 20.2049 11.02L23.3599 7.865C21.4549 6.09 18.9649 5 15.9999 5C11.6999 5 7.97992 7.465 6.16992 11.06L9.84492 13.91C10.7099 11.31 13.1349 9.375 15.9999 9.375Z" fill="#EA4335"/>
</svg>
