<svg width="32" height="32" viewBox="0 0 32 32" fill="none" xmlns="http://www.w3.org/2000/svg">
<path d="M4 16C4 9.37258 9.37258 4 16 4C22.6274 4 28 9.37258 28 16C28 22.6274 22.6274 28 16 28C9.37258 28 4 22.6274 4 16Z" fill="#FC3F1D"/>
<path d="M17.6911 23.212H20.1981V8.81201H16.5515C12.8841 8.81201 10.9572 10.6975 10.9572 13.4739C10.9572 15.6909 12.0139 16.9962 13.8994 18.3429L10.6257 23.212H13.34L16.9866 17.7628L15.7227 16.9133C14.1895 15.8773 13.4436 15.0693 13.4436 13.3288C13.4436 11.7956 14.521 10.7596 16.5722 10.7596H17.6911V23.212Z" fill="white"/>
</svg>
